Coordinates
version=1
nRows=20
nColumns=63
inDegrees=yes

Units are S.I. units (second, meters, Newtons, ...)
If the header above contains a line with 'inDegrees', this indicates whether rotational values are in degrees (yes) or radians (no).

endheader
time	pelvis_tilt	pelvis_list	pelvis_rotation	pelvis_tx	pelvis_ty	pelvis_tz	hip_flexion_r	hip_adduction_r	hip_rotation_r	knee_angle_r	knee_angle_r_beta	ankle_angle_r	subtalar_angle_r	mtp_angle_r	hip_flexion_l	hip_adduction_l	hip_rotation_l	knee_angle_l	knee_angle_l_beta	ankle_angle_l	subtalar_angle_l	mtp_angle_l	L5_S1_Flex_Ext	L5_S1_Lat_Bending	L5_S1_axial_rotation	L4_L5_Flex_Ext	L4_L5_Lat_Bending	L4_L5_axial_rotation	L3_L4_Flex_Ext	L3_L4_Lat_Bending	L3_L4_axial_rotation	L2_L3_Flex_Ext	L2_L3_Lat_Bending	L2_L3_axial_rotation	L1_L2_Flex_Ext	L1_L2_Lat_Bending	L1_L2_axial_rotation	L1_T12_Flex_Ext	L1_T12_Lat_Bending	L1_T12_axial_rotation	Abs_r3	Abs_r2	Abs_r1	Abs_t1	Abs_t2	neck_flexion	neck_bending	neck_rotation	arm_flex_r	arm_add_r	arm_rot_r	elbow_flex_r	pro_sup_r	wrist_flex_r	wrist_dev_r	arm_flex_l	arm_add_l	arm_rot_l	elbow_flex_l	pro_sup_l	wrist_flex_l	wrist_dev_l
1.677966	-0.113788	-3.605800	85.161624	0.275789	1.050573	0.133715	-2.805512	-2.354184	5.858744	6.111839	0.106672	25.102059	9.017119	0.000000	-3.960162	0.347888	-5.953326	6.164981	0.107599	23.052447	-2.940065	0.000000	0.230583	-0.277725	1.005055	0.428216	-0.369374	1.067871	0.378825	-0.675260	1.067871	0.263534	-0.675260	0.879423	0.214120	-0.566336	0.816607	0.131755	-0.430195	0.753791	1.647033	-3.141677	5.589816	0.000000	0.000000	16.435722	3.256731	6.733967	-1.020480	-20.291657	5.007539	109.034162	66.314837	-6.661165	9.615024	6.000079	-15.607945	12.855061	79.499641	86.290734	-22.919883	4.104221
1.694915	-0.246313	-3.505332	84.659344	0.275691	1.050300	0.132800	-2.969940	-2.577208	6.532990	6.106679	0.106582	25.018122	8.744123	0.000000	-4.215874	0.582147	-6.195580	6.066592	0.105882	22.904015	-3.233316	0.000000	0.224760	-0.257380	1.051498	0.417401	-0.342315	1.117217	0.369258	-0.625793	1.117217	0.256878	-0.625793	0.920061	0.208712	-0.524849	0.854342	0.128428	-0.398681	0.788624	1.605437	-2.911532	5.848118	0.000000	0.000000	16.778765	4.121362	6.396929	-1.212452	-20.110214	6.075438	109.643851	67.488117	-4.956662	8.524236	6.717488	-16.121781	14.189299	79.107038	84.277446	-22.741211	3.055657
1.711864	-0.410692	-3.406921	84.171649	0.275632	1.050000	0.131939	-3.138091	-2.825795	7.303683	6.096108	0.106397	24.871608	8.303740	0.000000	-4.455411	0.850244	-6.407198	5.992440	0.104588	22.790148	-3.563504	0.000000	0.216825	-0.243573	1.105519	0.402666	-0.323953	1.174614	0.356222	-0.592224	1.174614	0.247809	-0.592224	0.967329	0.201344	-0.496695	0.898234	0.123894	-0.377295	0.829139	1.548760	-2.755350	6.148563	0.000000	0.000000	17.084270	4.931073	5.780595	-1.516561	-19.954340	7.280475	110.207594	68.879489	-3.034250	7.347894	7.547330	-16.628314	15.574796	78.373085	82.022457	-22.697886	2.154815
1.728814	-0.591190	-3.302990	83.698270	0.275598	1.049723	0.131197	-3.303205	-3.091658	8.045082	6.092654	0.106337	24.684841	7.870790	0.000000	-4.682651	1.136794	-6.605490	5.942485	0.103716	22.727090	-3.917054	0.000000	0.205328	-0.234582	1.160971	0.381315	-0.311994	1.233531	0.337334	-0.570362	1.233531	0.234670	-0.570362	1.015849	0.190668	-0.478359	0.943289	0.117325	-0.363367	0.870728	1.466640	-2.653636	6.456971	0.000000	0.000000	17.332663	5.633904	4.966773	-1.870564	-19.843713	8.651827	110.647910	70.681899	-1.389151	6.108667	8.380284	-17.085980	16.787485	77.498307	80.001153	-22.692063	1.652238
1.745763	-0.766831	-3.198437	83.230146	0.275587	1.049501	0.130642	-3.448055	-3.353158	8.746837	6.103384	0.106524	24.465491	7.474782	0.000000	-4.895391	1.424015	-6.800829	5.902848	0.103024	22.696757	-4.310365	0.000000	0.190741	-0.228263	1.219871	0.354225	-0.303590	1.296112	0.313368	-0.555000	1.296112	0.217998	-0.555000	1.067387	0.177122	-0.465475	0.991145	0.108989	-0.353580	0.914903	1.362443	-2.582161	6.784554	0.000000	0.000000	17.494085	6.171499	3.953113	-2.206823	-19.762691	10.143110	110.822016	72.807857	-0.104604	4.911957	9.159481	-17.485507	17.812850	76.632991	78.150190	-22.793072	1.376099
1.762712	-0.926687	-3.092267	82.785563	0.275584	1.049368	0.130313	-3.579155	-3.592101	9.453375	6.108707	0.106617	24.214050	7.042785	0.000000	-5.090259	1.695881	-7.008539	5.873744	0.102516	22.684060	-4.700099	0.000000	0.173374	-0.223527	1.274152	0.321973	-0.297291	1.353787	0.284836	-0.543483	1.353787	0.198149	-0.543483	1.114883	0.160995	-0.455816	1.035249	0.099066	-0.346243	0.955614	1.238392	-2.528579	7.086453	0.000000	0.000000	17.523993	6.529455	2.830547	-2.390645	-19.691919	11.813584	110.517359	75.078362	0.689090	3.753822	9.808813	-17.805380	18.533490	75.956266	76.582515	-22.924551	1.297220
1.779661	-1.046186	-2.983464	82.365286	0.275577	1.049336	0.130248	-3.694718	-3.782158	10.175583	6.105003	0.106552	23.952058	6.597140	0.000000	-5.269150	1.925427	-7.237326	5.850909	0.102118	22.669757	-5.077806	0.000000	0.153334	-0.216992	1.322530	0.284757	-0.288600	1.405188	0.251913	-0.527595	1.405188	0.175246	-0.527595	1.157213	0.142386	-0.442491	1.074555	0.087615	-0.336121	0.991897	1.095251	-2.454661	7.355513	0.000000	0.000000	17.391343	6.655853	1.682513	-2.322350	-19.626405	13.693318	109.568379	77.427447	0.884319	2.631297	10.303239	-18.019904	18.895623	75.622741	75.371190	-23.046528	1.419020
1.796610	-1.107682	-2.875588	81.968414	0.275560	1.049383	0.130448	-3.786422	-3.901167	10.907923	6.097239	0.106417	23.714966	6.149425	0.000000	-5.430872	2.092542	-7.490323	5.829399	0.101742	22.656133	-5.429576	0.000000	0.131793	-0.206084	1.367723	0.244753	-0.274092	1.453206	0.216522	-0.501073	1.453206	0.150626	-0.501073	1.196758	0.122383	-0.420247	1.111275	0.075306	-0.319224	1.025792	0.941383	-2.331265	7.606865	0.000000	0.000000	17.080022	6.513981	0.588240	-1.962552	-19.562959	15.760447	107.868116	79.772330	0.505222	1.572788	10.649061	-18.103523	18.883585	75.747144	74.562078	-23.106705	1.699548
1.813559	-1.098792	-2.776859	81.623323	0.275502	1.049468	0.130900	-3.847671	-3.931039	11.598626	6.086868	0.106236	23.532577	5.707556	0.000000	-5.558401	2.178367	-7.721236	5.821816	0.101610	22.651482	-5.762122	0.000000	0.110591	-0.189512	1.413515	0.205378	-0.252051	1.501859	0.181690	-0.460779	1.501859	0.126394	-0.460779	1.236825	0.102695	-0.386453	1.148481	0.063192	-0.293554	1.060136	0.789939	-2.143797	7.861545	0.000000	0.000000	16.575936	6.050044	-0.450644	-1.361451	-19.475045	17.885826	105.403092	82.045049	-0.305230	0.671496	10.923033	-18.047242	18.573343	76.408471	74.219925	-23.179641	2.257231
1.830508	-1.034665	-2.698001	81.311179	0.275464	1.049537	0.131585	-3.865787	-3.882762	12.284570	6.069931	0.105940	23.427769	5.254785	0.000000	-5.650736	2.196403	-7.951262	5.809010	0.101386	22.665809	-6.069761	0.000000	0.091625	-0.168101	1.451519	0.170157	-0.223575	1.542239	0.150531	-0.408721	1.542239	0.104718	-0.408721	1.270079	0.085083	-0.342792	1.179359	0.052355	-0.260389	1.088639	0.654469	-1.901595	8.072912	0.000000	0.000000	15.930456	5.384357	-1.125625	-0.469759	-19.376718	20.215628	102.180122	84.079821	-1.664910	-0.147654	11.107742	-17.869950	17.859468	77.670287	74.333159	-23.045961	2.960327
1.847458	-0.901531	-2.642918	81.047279	0.275433	1.049538	0.132472	-3.849547	-3.743720	12.890903	6.033308	0.105301	23.406036	4.845765	0.000000	-5.706161	2.128717	-8.149651	5.791668	0.101084	22.721496	-6.330444	0.000000	0.075321	-0.141313	1.493739	0.139879	-0.187947	1.587097	0.123745	-0.343589	1.587097	0.086085	-0.343589	1.307021	0.069943	-0.288166	1.213663	0.043039	-0.218894	1.120304	0.538012	-1.598564	8.307726	0.000000	0.000000	15.175724	4.478597	-1.561018	0.534065	-19.263280	22.495761	98.403860	85.838163	-3.384998	-0.718581	11.324890	-17.558926	16.889740	79.488118	74.923080	-22.829908	3.901375
1.864407	-0.735099	-2.622098	80.827848	0.275420	1.049398	0.133567	-3.773816	-3.548891	13.388495	6.006738	0.104837	23.499580	4.480857	0.000000	-5.697652	2.008598	-8.341252	5.792375	0.101096	22.835880	-6.534037	0.000000	0.062911	-0.112829	1.538982	0.116832	-0.150063	1.635168	0.103357	-0.274333	1.635168	0.071901	-0.274333	1.346609	0.058419	-0.230081	1.250423	0.035947	-0.174772	1.154236	0.449369	-1.276345	8.559355	0.000000	0.000000	14.343508	3.482990	-1.551854	1.594316	-19.125283	24.731512	94.223027	87.244450	-5.320645	-1.055788	11.616336	-17.134028	15.667748	81.811570	75.959719	-22.459375	5.056636
1.881356	-0.539249	-2.634351	80.677345	0.275410	1.049101	0.134815	-3.652997	-3.301791	13.807366	5.990979	0.104562	23.668837	4.083802	0.000000	-5.619688	1.835747	-8.488288	5.825678	0.101677	23.003498	-6.682301	0.000000	0.054952	-0.083064	1.577958	0.102052	-0.110475	1.676581	0.090281	-0.201962	1.676581	0.062805	-0.201962	1.380713	0.051029	-0.169384	1.282091	0.031400	-0.128666	1.183469	0.392517	-0.939637	8.776130	0.000000	0.000000	13.477050	2.450973	-1.044895	2.699762	-18.976795	27.057128	89.752780	88.267229	-7.402609	-1.234183	12.003740	-16.626404	14.230168	84.521924	77.384371	-21.928378	6.287114
1.898305	-0.319999	-2.684289	80.560547	0.275442	1.048607	0.136177	-3.483945	-3.015931	14.117023	5.991282	0.104568	23.918351	3.752501	0.000000	-5.492258	1.621142	-8.587741	5.852980	0.102154	23.239241	-6.785588	0.000000	0.052487	-0.052361	1.625813	0.097473	-0.069640	1.727426	0.086230	-0.127311	1.727426	0.059987	-0.127311	1.422586	0.048739	-0.106775	1.320973	0.029991	-0.081108	1.219360	0.374907	-0.592321	9.042283	0.000000	0.000000	12.599643	1.383368	-0.160731	3.709403	-18.808270	29.194820	85.196265	88.923231	-9.115265	-1.126670	12.567191	-16.015417	12.705844	87.489124	79.110824	-21.347564	7.813274
1.915254	-0.098203	-2.760431	80.507433	0.275454	1.047931	0.137650	-3.281766	-2.717280	14.285994	6.014987	0.104981	24.249276	3.503061	0.000000	-5.309775	1.390973	-8.555117	5.899260	0.102962	23.516097	-6.946492	0.000000	0.053489	-0.022741	1.667416	0.099335	-0.030245	1.771629	0.087878	-0.055292	1.771629	0.061133	-0.055292	1.458989	0.049670	-0.046373	1.354775	0.030564	-0.035226	1.250562	0.382069	-0.257250	9.273668	0.000000	0.000000	11.726279	0.324737	1.068591	4.694215	-18.597250	31.354070	80.596253	89.167675	-10.507380	-0.892343	13.317317	-15.351064	11.143433	90.533813	80.991110	-20.692738	9.322615
1.932203	0.103961	-2.864060	80.542088	0.275437	1.047093	0.139244	-3.054706	-2.418757	14.490035	6.050683	0.105604	24.584019	3.070637	0.000000	-5.049331	1.152417	-8.487785	6.005027	0.104807	23.866274	-7.004322	0.000000	0.057804	0.003159	1.693952	0.107348	0.004202	1.799824	0.094967	0.007681	1.799824	0.066064	0.007681	1.482208	0.053677	0.006442	1.376336	0.033029	0.004894	1.270464	0.412890	0.035738	9.421253	0.000000	0.000000	10.852612	-0.709643	2.558467	5.670392	-18.301442	33.586892	76.002822	89.032236	-11.534946	-0.623052	14.290921	-14.686523	9.673378	93.461433	82.809128	-20.103184	10.507131
1.949153	0.285093	-2.987929	80.607012	0.275458	1.046125	0.140924	-2.799540	-2.126062	14.765412	6.111791	0.106671	24.902847	2.487895	0.000000	-4.739058	0.917237	-8.346788	6.148345	0.107309	24.260563	-7.067277	0.000000	0.063941	0.025407	1.720848	0.118744	0.033792	1.828401	0.105048	0.061775	1.828401	0.073078	0.061775	1.505742	0.059375	0.051810	1.398189	0.036536	0.039356	1.290636	0.456722	0.287412	9.570840	0.000000	0.000000	9.983899	-1.707882	4.163837	6.556582	-17.932282	35.752201	71.567535	88.726657	-12.321480	-0.317168	15.524569	-14.030688	8.410814	96.155118	84.382168	-19.547124	11.467716
1.966102	0.426054	-3.123609	80.742785	0.275467	1.045093	0.142679	-2.532970	-1.863139	15.061839	6.185262	0.107953	25.183541	1.786475	0.000000	-4.370111	0.701240	-8.128103	6.356972	0.110950	24.687821	-7.112227	0.000000	0.069834	0.041786	1.733746	0.129689	0.055575	1.842105	0.114731	0.101597	1.842105	0.079814	0.101597	1.517028	0.064848	0.085209	1.408668	0.039903	0.064726	1.300309	0.498819	0.472687	9.642574	0.000000	0.000000	9.149573	-2.688080	5.815431	7.377004	-17.468128	37.917465	67.268529	88.456022	-13.019402	-0.237943	17.004830	-13.444858	7.416154	98.509679	85.640719	-19.101019	11.964190
1.983051	0.521754	-3.267173	80.920754	0.275499	1.044047	0.144423	-2.253568	-1.636130	15.411277	6.281924	0.109640	25.403793	0.947176	0.000000	-3.959355	0.517622	-7.817029	6.622813	0.115590	25.117571	-7.213889	0.000000	0.075482	0.051597	1.741562	0.140178	0.068623	1.850409	0.124010	0.125452	1.850409	0.086269	0.125452	1.523866	0.070093	0.105216	1.415019	0.043130	0.079923	1.306171	0.539161	0.583671	9.686043	0.000000	0.000000	8.342062	-3.654203	7.390655	8.036013	-16.943424	39.855907	63.228870	88.268550	-13.602136	-0.326132	18.707621	-12.945357	6.723707	100.496407	86.573544	-18.720631	12.122922
2.000000	0.577549	-3.406324	81.149217	0.275500	1.043069	0.146065	-1.985698	-1.449873	15.715227	6.385420	0.111447	25.551736	0.080287	0.000000	-3.526014	0.359291	-7.466112	6.949719	0.121295	25.563090	-7.281156	0.000000	0.079612	0.056450	1.735430	0.147848	0.075079	1.843894	0.130795	0.137253	1.843894	0.090989	0.137253	1.518501	0.073928	0.115114	1.410037	0.045490	0.087442	1.301573	0.568661	0.638578	9.651941	0.000000	0.000000	7.565524	-4.587909	8.930509	8.585065	-16.400604	41.759536	59.466382	88.134229	-14.340661	-0.599874	20.551920	-12.581217	6.349427	102.108559	87.189081	-18.550971	11.784388
